<?xml version="1.0" encoding="utf-8"?>
<!-- Generator: Adobe Illustrator 25.3.1, SVG Export Plug-In . SVG Version: 6.00 Build 0)  -->
<svg version="1.1" id="레이어_1" xmlns="http://www.w3.org/2000/svg" xmlns:xlink="http://www.w3.org/1999/xlink" x="0px"
	 y="0px" viewBox="0 0 223.5 280" style="enable-background:new 0 0 223.5 280;" xml:space="preserve">
<style type="text/css">
	.st0{fill:#FFFFFF;}
	.st1{fill:#FFFF00;}
</style>
<g id="레이어_2_1_">
	<g id="레이어_1-2">
		<polygon class="st0" points="192.5,208.4 138.9,204.9 120.9,221.1 116.3,251.1 136.2,266.4 192.5,269.8 		"/>
		<polygon class="st0" points="84.7,209.8 31.1,206.2 13.1,222.4 8.5,252.5 28.4,267.8 84.7,271.2 		"/>
		<circle cx="192.5" cy="239.1" r="30.7"/>
		<path d="M148.2,266.4c-15.1,0.3-27.5-11.7-27.8-26.7c-0.3-15.1,11.7-27.5,26.7-27.8c0.3,0,0.7,0,1,0h34.1
			c15.1,0.3,27,12.7,26.7,27.8c-0.3,14.6-12.1,26.5-26.7,26.7H148.2 M148.2,280h34.1c22.6,0,40.9-18.3,40.9-40.9c0,0,0,0,0,0l0,0
			c0-22.6-18.3-40.9-40.9-40.9h-34.1c-22.6,0-40.9,18.3-40.9,40.9l0,0C107.3,261.7,125.6,280,148.2,280L148.2,280z"/>
		<circle cx="90.2" cy="239.1" r="30.7"/>
		<path d="M46,266.4c-15.1,0.3-27.5-11.7-27.8-26.7c-0.3-15.1,11.7-27.5,26.7-27.8c0.3,0,0.7,0,1,0h34c15.1-0.3,27.5,11.7,27.8,26.7
			c0.3,15.1-11.7,27.5-26.7,27.8c-0.3,0-0.7,0-1,0H46 M46,280h34c22.6,0,40.9-18.3,40.9-40.9c0,0,0,0,0,0l0,0
			c0-22.6-18.3-40.9-40.9-40.9H46c-22.6,0-40.9,18.3-40.9,40.9c0,0,0,0,0,0l0,0C5.1,261.7,23.4,280,46,280C46,280,46,280,46,280z"/>
		<path class="st1" d="M40.1,167.5c71.2,7.6,94.8,0.3,145.6-0.3c43.3-0.5,44-50.5,19.6-75.6L155,20.2c-2.6-3.2-13.7-16.1-31.7-17.9
			c-16-1.6-32.1,5.9-42.9,19.6c-13.4,17-28,33-42.8,48.7l-24,25.5C-10.4,121.8,5.2,163.8,40.1,167.5z"/>
		<path d="M98.8,173c-19.7-0.1-39.3-1.2-58.9-3.4C15.4,167-2.3,145.1,0.2,120.6c1-9.7,5.2-18.8,11.9-25.9l24-25.5
			c14.1-15.1,29.1-31.4,42.6-48.6C90.1,6.2,106.8-1.5,123.5,0.2c17.7,1.8,29,13.6,33.1,18.6l0.1,0.1l50.2,71.3
			c15,15.5,20.7,40.4,13.4,57.9c-5.6,13.4-17.9,20.9-34.6,21.1c-16.2,0.2-29.8,1.1-42.8,1.9C128.8,172.1,115.1,173,98.8,173z
			 M118.9,4.1c-13.8,0-27.4,6.9-36.9,19.1C68.3,40.5,53.3,56.9,39.1,72.1l-24,25.5c-15.3,16.3-14.5,41.8,1.8,57.1
			c6.4,6,14.6,9.8,23.4,10.7l0,0c48.2,5.1,74.4,3.4,102.3,1.6c13.1-0.9,26.7-1.7,43-1.9c19.2-0.2,27.4-10.2,30.9-18.6
			c6.7-16.1,1.2-39.1-12.7-53.5l-0.2-0.2l-50.2-71.4c-3.8-4.6-14.2-15.4-30.3-17.1C121.7,4.2,120.3,4.1,118.9,4.1z"/>
	</g>
</g>
</svg>
